<svg width="112" height="119" viewBox="0 0 112 119" fill="none" xmlns="http://www.w3.org/2000/svg">
<g filter="url(#filter0_d)">
<rect x="4" y="7" width="93" height="93" rx="10" fill="white"/>
</g>
<g filter="url(#filter1_d)">
<path d="M4 17C4 11.4772 8.47715 7 14 7H87C92.5228 7 97 11.4772 97 17V37H4V17Z" fill="#006CB5"/>
</g>
<g filter="url(#filter2_d)">
<rect x="17" y="2" width="9" height="17" rx="4.5" fill="black"/>
</g>
<g filter="url(#filter3_d)">
<rect x="74" y="2" width="9" height="17" rx="4.5" fill="black"/>
</g>
<path d="M44.9726 61.13C45.2326 61.13 45.4926 61.09 45.7526 61.01C46.0326 60.91 46.2826 60.77 46.5026 60.59C46.7426 60.39 46.9326 60.14 47.0726 59.84C47.2126 59.54 47.2826 59.19 47.2826 58.79C47.2826 58.21 47.1226 57.71 46.8026 57.29C46.5026 56.85 45.9626 56.63 45.1826 56.63H41.5226V61.13H44.9726ZM41.5226 64.97V70.19H44.8826C45.8826 70.19 46.6226 69.96 47.1026 69.5C47.6026 69.04 47.8526 68.42 47.8526 67.64C47.8526 66.78 47.5826 66.12 47.0426 65.66C46.5226 65.2 45.8626 64.97 45.0626 64.97H41.5226ZM39.6626 74C39.0026 74 38.4426 73.79 37.9826 73.37C37.5426 72.93 37.3226 72.42 37.3226 71.84V55.01C37.3226 54.39 37.5526 53.88 38.0126 53.48C38.4726 53.06 39.0226 52.85 39.6626 52.85H44.7326C45.8526 52.85 46.8326 53.02 47.6726 53.36C48.5326 53.68 49.2426 54.12 49.8026 54.68C50.3626 55.22 50.7826 55.85 51.0626 56.57C51.3426 57.27 51.4826 57.99 51.4826 58.73C51.4826 59.79 51.1826 60.66 50.5826 61.34C49.9826 62 49.2326 62.55 48.3326 62.99C48.7926 63.17 49.2426 63.4 49.6826 63.68C50.1426 63.94 50.5426 64.26 50.8826 64.64C51.2426 65.02 51.5226 65.46 51.7226 65.96C51.9426 66.46 52.0526 67.04 52.0526 67.7C52.0526 68.58 51.8826 69.4 51.5426 70.16C51.2026 70.92 50.7126 71.59 50.0726 72.17C49.4326 72.73 48.6526 73.18 47.7326 73.52C46.8126 73.84 45.7726 74 44.6126 74H39.6626ZM58.1436 66.38C58.1436 67.02 58.2036 67.6 58.3236 68.12C58.4436 68.64 58.6436 69.08 58.9236 69.44C59.2036 69.8 59.5736 70.08 60.0336 70.28C60.4936 70.48 61.0636 70.58 61.7436 70.58C62.2236 70.58 62.6636 70.52 63.0636 70.4C63.4636 70.28 63.8536 70.1 64.2336 69.86L64.5336 69.68C64.7336 69.56 64.9136 69.46 65.0736 69.38C65.2336 69.28 65.4836 69.23 65.8236 69.23C66.4036 69.23 66.8736 69.41 67.2336 69.77C67.6136 70.13 67.8036 70.55 67.8036 71.03C67.8036 71.47 67.6236 71.89 67.2636 72.29C66.9236 72.67 66.4636 73.01 65.8836 73.31C65.3036 73.59 64.6436 73.82 63.9036 74C63.1636 74.16 62.3936 74.24 61.5936 74.24C60.2736 74.24 59.1336 74.06 58.1736 73.7C57.2136 73.32 56.4136 72.79 55.7736 72.11C55.1536 71.41 54.6936 70.58 54.3936 69.62C54.0936 68.64 53.9436 67.56 53.9436 66.38V60.44C53.9436 59.26 54.0936 58.19 54.3936 57.23C54.6936 56.25 55.1536 55.42 55.7736 54.74C56.4136 54.04 57.2136 53.51 58.1736 53.15C59.1336 52.77 60.2736 52.58 61.5936 52.58C62.3936 52.58 63.1636 52.67 63.9036 52.85C64.6436 53.01 65.3036 53.24 65.8836 53.54C66.4636 53.82 66.9236 54.16 67.2636 54.56C67.6236 54.94 67.8036 55.35 67.8036 55.79C67.8036 56.27 67.6136 56.69 67.2336 57.05C66.8736 57.41 66.4036 57.59 65.8236 57.59C65.4836 57.59 65.2336 57.55 65.0736 57.47C64.9136 57.37 64.7336 57.26 64.5336 57.14L64.2336 56.96C63.8536 56.72 63.4636 56.54 63.0636 56.42C62.6636 56.3 62.2236 56.24 61.7436 56.24C61.0636 56.24 60.4936 56.34 60.0336 56.54C59.5736 56.74 59.2036 57.02 58.9236 57.38C58.6436 57.74 58.4436 58.18 58.3236 58.7C58.2036 59.22 58.1436 59.8 58.1436 60.44V66.38Z" fill="#E31E25"/>
<path d="M71.5 78L89 96M89 96L106.5 78M89 96L71.5 113.5M89 96L106.5 113.5" stroke="white" stroke-width="10" stroke-linecap="round"/>
<path d="M71.5 78L89 96M89 96L106.5 78M89 96L71.5 113.5M89 96L106.5 113.5" stroke="#E31E25" stroke-width="5" stroke-linecap="round"/>
<defs>
<filter id="filter0_d" x="0" y="7" width="101" height="101" filterUnits="userSpaceOnUse" color-interpolation-filters="sRGB">
<feFlood flood-opacity="0" result="BackgroundImageFix"/>
<feColorMatrix in="SourceAlpha" type="matrix" values="0 0 0 0 0 0 0 0 0 0 0 0 0 0 0 0 0 0 127 0"/>
<feOffset dy="4"/>
<feGaussianBlur stdDeviation="2"/>
<feColorMatrix type="matrix" values="0 0 0 0 0 0 0 0 0 0 0 0 0 0 0 0 0 0 0.25 0"/>
<feBlend mode="normal" in2="BackgroundImageFix" result="effect1_dropShadow"/>
<feBlend mode="normal" in="SourceGraphic" in2="effect1_dropShadow" result="shape"/>
</filter>
<filter id="filter1_d" x="0" y="5" width="101" height="38" filterUnits="userSpaceOnUse" color-interpolation-filters="sRGB">
<feFlood flood-opacity="0" result="BackgroundImageFix"/>
<feColorMatrix in="SourceAlpha" type="matrix" values="0 0 0 0 0 0 0 0 0 0 0 0 0 0 0 0 0 0 127 0"/>
<feOffset dy="2"/>
<feGaussianBlur stdDeviation="2"/>
<feColorMatrix type="matrix" values="0 0 0 0 0 0 0 0 0 0 0 0 0 0 0 0 0 0 0.1 0"/>
<feBlend mode="normal" in2="BackgroundImageFix" result="effect1_dropShadow"/>
<feBlend mode="normal" in="SourceGraphic" in2="effect1_dropShadow" result="shape"/>
</filter>
<filter id="filter2_d" x="13" y="0" width="17" height="25" filterUnits="userSpaceOnUse" color-interpolation-filters="sRGB">
<feFlood flood-opacity="0" result="BackgroundImageFix"/>
<feColorMatrix in="SourceAlpha" type="matrix" values="0 0 0 0 0 0 0 0 0 0 0 0 0 0 0 0 0 0 127 0"/>
<feOffset dy="2"/>
<feGaussianBlur stdDeviation="2"/>
<feColorMatrix type="matrix" values="0 0 0 0 0 0 0 0 0 0 0 0 0 0 0 0 0 0 0.25 0"/>
<feBlend mode="normal" in2="BackgroundImageFix" result="effect1_dropShadow"/>
<feBlend mode="normal" in="SourceGraphic" in2="effect1_dropShadow" result="shape"/>
</filter>
<filter id="filter3_d" x="70" y="0" width="17" height="25" filterUnits="userSpaceOnUse" color-interpolation-filters="sRGB">
<feFlood flood-opacity="0" result="BackgroundImageFix"/>
<feColorMatrix in="SourceAlpha" type="matrix" values="0 0 0 0 0 0 0 0 0 0 0 0 0 0 0 0 0 0 127 0"/>
<feOffset dy="2"/>
<feGaussianBlur stdDeviation="2"/>
<feColorMatrix type="matrix" values="0 0 0 0 0 0 0 0 0 0 0 0 0 0 0 0 0 0 0.25 0"/>
<feBlend mode="normal" in2="BackgroundImageFix" result="effect1_dropShadow"/>
<feBlend mode="normal" in="SourceGraphic" in2="effect1_dropShadow" result="shape"/>
</filter>
</defs>
</svg>
