<svg width="24" height="25" viewBox="0 0 24 25" fill="none" xmlns="http://www.w3.org/2000/svg">
<path d="M18.1387 16.3335C17.3618 15.5594 16.3919 15.5594 15.6199 16.3335C15.031 16.9228 14.4422 17.5121 13.8632 18.1114C13.7049 18.2762 13.5712 18.3112 13.3783 18.2013C12.9972 17.9916 12.5915 17.8218 12.2253 17.592C10.518 16.5083 9.08794 15.1149 7.82114 13.5468C7.19269 12.7677 6.63351 11.9337 6.24258 10.9948C6.16341 10.805 6.17825 10.6801 6.33165 10.5253C6.92052 9.95098 7.49454 9.36167 8.07351 8.77235C8.88011 7.95331 8.88011 6.99443 8.06856 6.1704C7.60836 5.70094 7.14815 5.24148 6.68794 4.77203C6.21289 4.29259 5.74279 3.80816 5.26279 3.33371C4.48588 2.56961 3.51598 2.56961 2.74402 3.33871C2.15021 3.92802 1.58113 4.53231 0.977423 5.11163C0.418247 5.64601 0.136185 6.30024 0.0768039 7.06435C-0.0172167 8.3079 0.284639 9.48153 0.710206 10.6252C1.58113 12.9924 2.90732 15.095 4.51557 17.0227C6.68794 19.6297 9.28093 21.6923 12.3143 23.1805C13.6801 23.8497 15.0954 24.3641 16.6343 24.449C17.6933 24.509 18.6137 24.2393 19.351 23.4052C19.8558 22.8359 20.4249 22.3165 20.9593 21.7722C21.751 20.9631 21.756 19.9842 20.9692 19.1852C20.029 18.2313 19.0838 17.2824 18.1387 16.3335Z" fill="white"/>
<path d="M17.1934 12.3531L19.0194 12.0385C18.7324 10.3455 17.9406 8.81226 16.7381 7.59368C15.4664 6.31018 13.8581 5.50113 12.0866 5.25142L11.8293 7.10426C13.2 7.29903 14.447 7.9233 15.4318 8.91714C16.3621 9.85604 16.9707 11.0447 17.1934 12.3531Z" fill="white"/>
<path d="M20.0488 4.34249C17.9407 2.21498 15.2735 0.871547 12.3292 0.457031L12.0719 2.30987C14.6154 2.66944 16.9213 3.83309 18.7424 5.66594C20.4694 7.40891 21.6026 9.61133 22.0133 12.0335L23.8393 11.7189C23.3593 8.91215 22.0479 6.36513 20.0488 4.34249Z" fill="white"/>
</svg>
